<svg width="75" height="71" viewBox="0 0 75 71" fill="none" xmlns="http://www.w3.org/2000/svg">
<path d="M30.7314 4.89026C32.9495 -1.63008 42.0505 -1.63009 44.2686 4.89024L48.4544 17.195C49.4499 20.1213 52.1682 22.0852 55.223 22.0852H67.8272C74.8646 22.0852 77.6789 31.2951 71.8728 35.3243L62.417 41.8862C59.7584 43.7311 58.6439 47.1483 59.6939 50.235L63.4748 61.3494C65.7229 67.9581 58.3526 73.6482 52.6606 69.6982L41.5455 61.9849C39.1071 60.2927 35.8929 60.2927 33.4545 61.9849L22.3394 69.6982C16.6475 73.6482 9.27713 67.9581 11.5253 61.3494L15.3061 50.235C16.3562 47.1483 15.2416 43.7311 12.5831 41.8862L3.12722 35.3243C-2.67891 31.2951 0.135411 22.0852 7.17277 22.0852H19.777C22.8318 22.0852 25.5501 20.1213 26.5456 17.195L30.7314 4.89026Z" fill="white"/>
<path d="M35.7941 12.1987C36.3225 10.5125 38.6775 10.5125 39.2059 12.1987L44.0154 27.5455C44.2514 28.2986 44.9415 28.8102 45.7213 28.8102H61.3711C63.095 28.8102 63.8225 31.037 62.439 32.0791L49.7078 41.6692C49.0948 42.1309 48.8386 42.9358 49.0697 43.6734L53.9158 59.137C54.4418 60.8151 52.5367 62.1917 51.1421 61.1412L38.5679 51.6694C37.934 51.1919 37.0661 51.1919 36.4321 51.6694L23.858 61.1412C22.4634 62.1917 20.5583 60.8151 21.0842 59.137L25.9303 43.6734C26.1614 42.9358 25.9052 42.1309 25.2922 41.6692L12.561 32.0791C11.1775 31.0369 11.905 28.8102 13.6289 28.8102H29.2787C30.0585 28.8102 30.7486 28.2986 30.9846 27.5455L35.7941 12.1987Z" fill="#8B62AA"/>
</svg>
